<svg xmlns="http://www.w3.org/2000/svg" viewBox="0 0 291.97 260.63"><defs><style>.cls-1{fill:#f0870a;stroke:#f0870a;stroke-miterlimit:10;stroke-width:1.17px;}.cls-2{fill:#fff;}.cls-3{fill:#fcc433;}</style></defs><title>cfl logo</title><g id="Layer_2" data-name="Layer 2"><g id="Layer_1-2" data-name="Layer 1"><path class="cls-1" d="M63.6,13.55c4.13-7.13,14.22-13,22.47-13H205.91c8.24,0,18.34,5.83,22.46,13l59.94,103.79c4.11,7.13,4.1,18.8,0,25.94L228.38,247.06c-4.13,7.13-14.23,13-22.47,13H86.05c-8.23,0-18.32-5.84-22.44-13L3.68,143.28c-4.13-7.14-4.12-18.81,0-25.95Z"/><path class="cls-2" d="M55.74,117.51q-4.77,3.13-5.41,7.72t2.88,9.93q3.54,5.4,8.28,6.47A12.08,12.08,0,0,0,71,139.56,14.44,14.44,0,0,0,74.88,136a34.22,34.22,0,0,0,2.36-3.77,7.35,7.35,0,0,1,3,1,7.59,7.59,0,0,1,2.45,2.44q1.67,2.53,0,6.17t-7.43,7.41a30.24,30.24,0,0,1-8.6,4,20.83,20.83,0,0,1-8.78.57,20.56,20.56,0,0,1-8.39-3.38A27.56,27.56,0,0,1,42,142.5,26.61,26.61,0,0,1,38,133a21.82,21.82,0,0,1,.06-9,21,21,0,0,1,3.66-7.9,25.88,25.88,0,0,1,6.71-6.28q5.71-3.75,10.08-3.94t6.27,2.72a5.78,5.78,0,0,1,1,3.33,7.8,7.8,0,0,1-.64,3.08,24.2,24.2,0,0,0-4.62.46A13.59,13.59,0,0,0,55.74,117.51Z"/><path class="cls-2" d="M76.86,119.64a27,27,0,0,1-4.1-9.57,20.69,20.69,0,0,1,3.77-16.86A28.14,28.14,0,0,1,92,83.06a21.56,21.56,0,0,1,8.75-.27A20.93,20.93,0,0,1,109,86.28a26.76,26.76,0,0,1,7.15,7.57,27.92,27.92,0,0,1,4.15,9.57,20.3,20.3,0,0,1-3.75,16.9,27.35,27.35,0,0,1-7,6.44,26.88,26.88,0,0,1-8.7,3.8,20.87,20.87,0,0,1-8.75.19,21.62,21.62,0,0,1-8.22-3.58A27.19,27.19,0,0,1,76.86,119.64ZM88,112.3q3.7,5.65,7.84,6.94a9.83,9.83,0,0,0,12.35-8.11q.47-4.29-3.24-9.95c-2.45-3.72-5-6-7.77-6.89a9,9,0,0,0-8,1.26,9.14,9.14,0,0,0-4.36,6.81Q84.33,106.65,88,112.3Z"/><path class="cls-2" d="M149.69,100.27q-1,.69-2.46,1.53c-.94.55-1.93,1.09-3,1.6s-2.13,1-3.22,1.45a17.86,17.86,0,0,1-3.21,1q-4.27.93-6.39-2.29l-19-29a3.29,3.29,0,0,1-.61-2.49,6.39,6.39,0,0,1,1.2-2.43,31.25,31.25,0,0,1,4.9-4.85C119.75,63.3,121.46,62,123,61a36.51,36.51,0,0,1,9.56-4.58,21.56,21.56,0,0,1,9.15-.81,19.59,19.59,0,0,1,8.43,3.3,27.56,27.56,0,0,1,7.34,7.8,27.61,27.61,0,0,1,4.19,9.64,19.9,19.9,0,0,1-.18,9,21.25,21.25,0,0,1-4.14,8.1A33.18,33.18,0,0,1,149.69,100.27Zm-9.42-6.78c.51-.22,1.11-.51,1.82-.89s1.34-.74,1.92-1.12a13.83,13.83,0,0,0,3.47-3.17,9.36,9.36,0,0,0,1.78-3.92A10.67,10.67,0,0,0,149,79.7a18.39,18.39,0,0,0-2.57-5.47q-3.66-5.58-8.12-6.7a10.79,10.79,0,0,0-8.81,1.74c-.58.38-1.16.79-1.73,1.22s-1.14.9-1.71,1.39Z"/><path class="cls-2" d="M155.21,49.66a6.4,6.4,0,0,1,2-9.56l20.49-13.45a9.3,9.3,0,0,1,1.95,1.29,9.51,9.51,0,0,1,1.89,2.14c1,1.57,1.43,2.91,1.18,4a4.44,4.44,0,0,1-2.05,2.77l-13.1,8.6,3.79,5.77,14-9.17a9.55,9.55,0,0,1,3.81,3.37,5.53,5.53,0,0,1,1.2,4,4.3,4.3,0,0,1-2,2.75l-11.42,7.5,4.28,6.51,16-10.47a9.08,9.08,0,0,1,2,1.29A9.51,9.51,0,0,1,201,59.16a5.56,5.56,0,0,1,1.2,4.06,4.36,4.36,0,0,1-2,2.79L182,77.91a6.4,6.4,0,0,1-9.56-2Z"/><path class="cls-3" d="M106.92,136.34a8.88,8.88,0,0,1,2,1.33,9.9,9.9,0,0,1,1.91,2.16q1.59,2.43,1.24,4.12a4.52,4.52,0,0,1-2.09,2.84l-13,8.56,4.6,7,13.6-8.92a7.27,7.27,0,0,1,2,1.25,9.94,9.94,0,0,1,1.89,2.13,5.57,5.57,0,0,1,1.19,4.06,4.45,4.45,0,0,1-2.09,2.84l-10.86,7.13,8.59,13.1a20,20,0,0,1-1.89,1.78,29.88,29.88,0,0,1-2.77,2.08,15.66,15.66,0,0,1-2.66,1.43,5.4,5.4,0,0,1-2.34.43,4,4,0,0,1-2.13-.82,9,9,0,0,1-2.09-2.37l-17.72-27a6.42,6.42,0,0,1,2-9.57Z"/><path class="cls-3" d="M123.57,152.24a27,27,0,0,1-4.1-9.56,20.72,20.72,0,0,1,3.77-16.87,28.19,28.19,0,0,1,15.46-10.14,21.56,21.56,0,0,1,8.75-.28,20.93,20.93,0,0,1,8.28,3.49,26.9,26.9,0,0,1,7.15,7.57A27.88,27.88,0,0,1,167,136a20.29,20.29,0,0,1-3.75,16.89,27,27,0,0,1-7,6.44,26.67,26.67,0,0,1-8.7,3.8,20.71,20.71,0,0,1-8.75.19,21.47,21.47,0,0,1-8.22-3.58A27.19,27.19,0,0,1,123.57,152.24Zm11.18-7.33q3.7,5.66,7.84,6.94a9.83,9.83,0,0,0,12.35-8.11q.47-4.31-3.24-10c-2.45-3.73-5-6-7.77-6.9a9,9,0,0,0-8,1.26,9.17,9.17,0,0,0-4.36,6.82Q131,139.26,134.75,144.91Z"/><path class="cls-3" d="M184.29,122l7.82,11.93a20.63,20.63,0,0,1-1.9,1.77,25.56,25.56,0,0,1-2.76,2.08,15.08,15.08,0,0,1-2.66,1.44,5,5,0,0,1-2.31.4,4.1,4.1,0,0,1-2.1-.84,8.77,8.77,0,0,1-2.09-2.36L159.1,107.17a3.29,3.29,0,0,1-.61-2.49,6.25,6.25,0,0,1,1.2-2.43,27.59,27.59,0,0,1,4.2-4.31,57.61,57.61,0,0,1,5.73-4.25q8.58-5.62,15.28-4.88a14.36,14.36,0,0,1,10.74,6.9A13,13,0,0,1,198,103.6a17,17,0,0,1-1.95,7.31q4.23,1.59,8.15,2.82a43.6,43.6,0,0,1,6.6,2.61,7,7,0,0,1-.09,4.81,7.53,7.53,0,0,1-2.94,3.57,9.47,9.47,0,0,1-2.56,1.24,7,7,0,0,1-2.31.27,8.44,8.44,0,0,1-2.26-.47,21.6,21.6,0,0,1-2.32-1l-10.72-5Zm-1.51-10.82a6.47,6.47,0,0,0,2.93-3.66,5.4,5.4,0,0,0-1-4.46,5.13,5.13,0,0,0-3.87-2.57q-2.31-.23-5.6,1.94a16.47,16.47,0,0,0-1.45,1c-.35.29-.72.62-1.12,1l6.11,9.32Z"/><path class="cls-2" d="M138.24,233.14a6.41,6.41,0,0,1-9.56-2l-21.07-32.1q.6-.57,2-1.77a23.83,23.83,0,0,1,2.72-2.09,14.92,14.92,0,0,1,2.65-1.43,5.31,5.31,0,0,1,2.34-.43,4,4,0,0,1,2.14.82,9.08,9.08,0,0,1,2.08,2.36l16.1,24.53,14.22-9.33a9.56,9.56,0,0,1,2,1.3,9.22,9.22,0,0,1,1.94,2.14q1.63,2.49,1.24,4.21a4.56,4.56,0,0,1-2.12,2.85Z"/><path class="cls-2" d="M174.9,208.47a20.63,20.63,0,0,1-1.9,1.77,25.56,25.56,0,0,1-2.76,2.08,15.08,15.08,0,0,1-2.66,1.44,5.29,5.29,0,0,1-2.34.42,4.06,4.06,0,0,1-2.14-.81A9.17,9.17,0,0,1,161,211l-21.51-32.78q.6-.57,2-1.77a22.91,22.91,0,0,1,2.71-2.09,15,15,0,0,1,2.66-1.43,5.31,5.31,0,0,1,2.34-.43,4,4,0,0,1,2.13.82,9.1,9.1,0,0,1,2.09,2.36Z"/><path class="cls-2" d="M184.9,148.43a9.08,9.08,0,0,1,2,1.33,9.67,9.67,0,0,1,1.91,2.16c1.06,1.62,1.48,3,1.24,4.12a4.45,4.45,0,0,1-2.09,2.84l-13,8.55,4.6,7,13.6-8.92a7.13,7.13,0,0,1,2,1.25,9.46,9.46,0,0,1,1.89,2.13,5.63,5.63,0,0,1,1.2,4.06,4.49,4.49,0,0,1-2.09,2.84l-10.87,7.13,8.6,13.1a23.5,23.5,0,0,1-1.9,1.78,28.48,28.48,0,0,1-2.76,2.08,16,16,0,0,1-2.66,1.43,5.45,5.45,0,0,1-2.34.43,4,4,0,0,1-2.14-.82,9,9,0,0,1-2.08-2.37l-17.73-27a6.42,6.42,0,0,1,2-9.56Z"/><path class="cls-2" d="M195.2,149.93a6.42,6.42,0,0,1,2-9.56l20.49-13.45a9.33,9.33,0,0,1,2,1.29,10,10,0,0,1,1.89,2.14q1.54,2.35,1.17,4a4.47,4.47,0,0,1-2,2.77l-13.1,8.6,3.79,5.77,14-9.17a9.28,9.28,0,0,1,1.94,1.26,9.58,9.58,0,0,1,1.87,2.11,5.53,5.53,0,0,1,1.2,4,4.32,4.32,0,0,1-2,2.75L216.88,160l4.28,6.52,16-10.47a9,9,0,0,1,1.95,1.29,9.51,9.51,0,0,1,1.89,2.14,5.52,5.52,0,0,1,1.2,4.06,4.33,4.33,0,0,1-2,2.79L222,178.18a6.4,6.4,0,0,1-9.56-2Z"/><path class="cls-3" d="M93.52,184.7a4.37,4.37,0,0,1,.7.76c.22.32.43.62.61.91a10,10,0,0,1,1.08,2.24,5.63,5.63,0,0,1,.29,2.23,4.84,4.84,0,0,1-.68,2.12,5.73,5.73,0,0,1-2,1.88,7.5,7.5,0,0,1-2.9,1.07c-1.07.16-2.45.28-4.12.36L68.49,197a12.72,12.72,0,0,1-6.91-9,6.42,6.42,0,0,1,.75-3.58L73,163.9c2.35-.74,4.17-.87,5.47-.41a5.6,5.6,0,0,1,3,2.31,5.73,5.73,0,0,1,1,4,12.39,12.39,0,0,1-1.75,4.25L73.4,186.41Z"/><path class="cls-3" d="M201.9,88.67a4.35,4.35,0,0,1-.7-.76c-.23-.32-.44-.62-.62-.91a10.68,10.68,0,0,1-1.08-2.24,5.65,5.65,0,0,1-.29-2.23,5,5,0,0,1,.69-2.12,5.78,5.78,0,0,1,1.95-1.88,7.5,7.5,0,0,1,2.9-1.07c1.08-.16,2.45-.28,4.12-.37l18.06-.75a12.69,12.69,0,0,1,6.9,9,6.25,6.25,0,0,1-.75,3.58L222.4,109.47c-2.34.74-4.17.87-5.47.4a5.62,5.62,0,0,1-3-2.3,5.73,5.73,0,0,1-1.05-4,12.72,12.72,0,0,1,1.75-4.25L222,87Z"/></g></g></svg>