<svg xmlns="http://www.w3.org/2000/svg" viewBox="0 0 728.08 56.8"><defs><style>.cls-1{fill:#f1880c;}.cls-2{fill:#fdc533;}</style></defs><title>Asset 1</title><g id="Layer_2" data-name="Layer 2"><g id="Layer_1-2" data-name="Layer 1"><path class="cls-1" d="M13.38,4.29a6.09,6.09,0,0,1,4.76-2.75H43.58a6.13,6.13,0,0,1,4.77,2.75l12.72,22a6.14,6.14,0,0,1,0,5.51l-12.72,22a6.11,6.11,0,0,1-4.77,2.76H18.14a6.08,6.08,0,0,1-4.76-2.76L.66,31.83a6.08,6.08,0,0,1,0-5.51Z"/><path class="cls-1" d="M13.38,4.29a6.09,6.09,0,0,1,4.76-2.75H43.58a6.13,6.13,0,0,1,4.77,2.75l12.72,22a6.14,6.14,0,0,1,0,5.51l-12.72,22a6.11,6.11,0,0,1-4.77,2.76H18.14a6.08,6.08,0,0,1-4.76-2.76L.66,31.83a6.08,6.08,0,0,1,0-5.51Z"/><path class="cls-1" d="M110.12,12.46q-6.81,0-10.43,4.15T96.07,28.36q0,7.68,4,11.84t10.82,4.15a17,17,0,0,0,6.14-1,43.22,43.22,0,0,0,4.82-2.21,8.73,8.73,0,0,1,2.34,3,9.08,9.08,0,0,1,.84,4q0,3.62-4,6.14T108.79,56.8a36.42,36.42,0,0,1-11.13-1.67A25,25,0,0,1,88.56,50a24.5,24.5,0,0,1-6.14-8.84,32.79,32.79,0,0,1-2.25-12.76,31.78,31.78,0,0,1,2.16-12.15,26,26,0,0,1,5.92-8.88A25,25,0,0,1,97,1.86,30.88,30.88,0,0,1,107.82,0Q116,0,120.41,2.65t4.46,6.8a6.86,6.86,0,0,1-1.15,4,9.41,9.41,0,0,1-2.65,2.65,28.12,28.12,0,0,0-4.9-2.56A15.94,15.94,0,0,0,110.12,12.46Z"/><path class="cls-1" d="M129.73,28.36a32.06,32.06,0,0,1,2.16-12.19,25.29,25.29,0,0,1,5.92-8.88,25,25,0,0,1,8.84-5.43,33.46,33.46,0,0,1,22,0,25.42,25.42,0,0,1,8.87,5.43,24.87,24.87,0,0,1,6,8.88,32.06,32.06,0,0,1,2.16,12.19,32.83,32.83,0,0,1-2.12,12.23,24.69,24.69,0,0,1-5.87,8.93A25.31,25.31,0,0,1,168.78,55a32.42,32.42,0,0,1-11.13,1.85,31.65,31.65,0,0,1-11.13-1.9,24.71,24.71,0,0,1-8.84-5.52,25.41,25.41,0,0,1-5.83-8.92A32.44,32.44,0,0,1,129.73,28.36Zm15.9,0q0,8,3.27,12a11.7,11.7,0,0,0,17.58,0q3.27-4,3.27-12t-3.22-11.93a10.71,10.71,0,0,0-8.79-4,10.93,10.93,0,0,0-8.8,3.93Q145.64,20.32,145.63,28.36Z"/><path class="cls-1" d="M214.8,56.63c-1,0-2.15,0-3.44-.09s-2.64-.18-4-.35-2.77-.4-4.15-.67a20.62,20.62,0,0,1-3.85-1.1q-4.86-1.86-4.86-6.45V6.71a3.89,3.89,0,0,1,1-2.87,7.31,7.31,0,0,1,2.78-1.63,37.22,37.22,0,0,1,8-1.64q4.25-.39,7.6-.39a43.5,43.5,0,0,1,12.5,1.68A25.81,25.81,0,0,1,236.05,7a23.32,23.32,0,0,1,6.23,8.79,32.58,32.58,0,0,1,2.21,12.55,32.86,32.86,0,0,1-2.12,12.32,23.87,23.87,0,0,1-6.05,8.84,25.5,25.5,0,0,1-9.41,5.34A39.23,39.23,0,0,1,214.8,56.63Zm-4.94-12.9c.64.12,1.44.22,2.38.31s1.83.13,2.65.13a16.52,16.52,0,0,0,5.52-.88,11,11,0,0,0,4.33-2.74,12.65,12.65,0,0,0,2.83-4.82,21.91,21.91,0,0,0,1-7.11q0-7.95-3.7-12a12.84,12.84,0,0,0-9.9-4c-.83,0-1.66,0-2.52.09s-1.72.15-2.6.27Z"/><path class="cls-1" d="M253.32,9.89a8.07,8.07,0,0,1,2.21-6,8.12,8.12,0,0,1,6-2.21h29.15a10.54,10.54,0,0,1,1.1,2.56,11.24,11.24,0,0,1,.49,3.36q0,3.36-1.46,4.77A5.28,5.28,0,0,1,287,13.78H268.34V22h19.87a10.7,10.7,0,0,1,1.11,2.52,11.08,11.08,0,0,1,.48,3.31q0,3.36-1.41,4.77a5.14,5.14,0,0,1-3.8,1.41H268.34v9.28H291a10.92,10.92,0,0,1,1.11,2.56,11.57,11.57,0,0,1,.48,3.36c0,2.24-.48,3.84-1.46,4.81a5.19,5.19,0,0,1-3.84,1.46H261.54a7.63,7.63,0,0,1-8.22-8.22Z"/><path class="cls-2" d="M344.56,44.44a4.75,4.75,0,0,1,.22,1.23c0,.48,0,.92,0,1.33a12.09,12.09,0,0,1-.35,3,6.82,6.82,0,0,1-1.15,2.48,6,6,0,0,1-2.07,1.72,7,7,0,0,1-3.23.66,9,9,0,0,1-3.66-.79,50.15,50.15,0,0,1-4.46-2.3l-19-11a12.75,12.75,0,0,1-2.3-8,12.74,12.74,0,0,1,1.06-5.74,7.72,7.72,0,0,1,3.1-3.18L337.05,9.81c2.89.76,4.84,1.81,5.88,3.13a6.87,6.87,0,0,1,1.54,4.29A7,7,0,0,1,342.93,22a15.3,15.3,0,0,1-4.55,3.23l-15.55,7.86Z"/><path class="cls-2" d="M390.94,1.68a10.85,10.85,0,0,1,1.11,2.61,12,12,0,0,1,.48,3.4c0,2.29-.48,3.93-1.46,4.9a5.31,5.31,0,0,1-3.93,1.46H368.59V24h19.35a8.6,8.6,0,0,1,1.19,2.56,11.57,11.57,0,0,1,.49,3.36q0,3.36-1.46,4.81a5.33,5.33,0,0,1-3.93,1.46H368.77V54.86a24.81,24.81,0,0,1-3,.53,32,32,0,0,1-4.11.27,18.94,18.94,0,0,1-3.58-.31,6.35,6.35,0,0,1-2.6-1.11A4.69,4.69,0,0,1,353.84,52a10.57,10.57,0,0,1-.53-3.71V9.89a8.07,8.07,0,0,1,2.21-6,8.11,8.11,0,0,1,6-2.21Z"/><path class="cls-2" d="M397.12,28.36a31.87,31.87,0,0,1,2.17-12.19A24.57,24.57,0,0,1,414,1.86a33.46,33.46,0,0,1,22,0,25.56,25.56,0,0,1,8.88,5.43,24.85,24.85,0,0,1,6,8.88,32.06,32.06,0,0,1,2.17,12.19,32.83,32.83,0,0,1-2.13,12.23,24.69,24.69,0,0,1-5.87,8.93A25.22,25.22,0,0,1,436.17,55,32.37,32.37,0,0,1,425,56.8a31.65,31.65,0,0,1-11.13-1.9,24.71,24.71,0,0,1-8.84-5.52,25.55,25.55,0,0,1-5.83-8.92A32.44,32.44,0,0,1,397.12,28.36Zm15.91,0q0,8,3.26,12a11.7,11.7,0,0,0,17.58,0q3.27-4,3.27-12t-3.22-11.93a10.71,10.71,0,0,0-8.79-4,10.93,10.93,0,0,0-8.79,3.93Q413,20.32,413,28.36Z"/><path class="cls-2" d="M477.25,37.9v17a24.45,24.45,0,0,1-3.05.53,31.75,31.75,0,0,1-4.11.27,18.83,18.83,0,0,1-3.57-.31A6,6,0,0,1,464,54.24,4.9,4.9,0,0,1,462.41,52a10.57,10.57,0,0,1-.53-3.71V6.71a3.92,3.92,0,0,1,1-2.87,7.36,7.36,0,0,1,2.79-1.63,33.28,33.28,0,0,1,7-1.55,70.76,70.76,0,0,1,8.48-.48q12.18,0,18.37,5.12t6.19,13.87a15.56,15.56,0,0,1-2.83,9.37,20.3,20.3,0,0,1-6.71,6c2.12,2.89,4.2,5.6,6.27,8.13a52.63,52.63,0,0,1,4.86,6.89,8.36,8.36,0,0,1-3.23,4.73,9,9,0,0,1-5.25,1.63,11.46,11.46,0,0,1-3.36-.44A8.12,8.12,0,0,1,493,54.24,10.48,10.48,0,0,1,491,52.3a25.58,25.58,0,0,1-1.68-2.48L481.93,37.9Zm5.56-11.75a7.73,7.73,0,0,0,5.31-1.72,6.45,6.45,0,0,0,1.94-5.08,6.09,6.09,0,0,0-2.17-5.08q-2.16-1.73-6.84-1.73a19.65,19.65,0,0,0-2.12.09q-.8.09-1.77.27V26.15Z"/><path class="cls-2" d="M512.94,20.23a4.75,4.75,0,0,1-.22-1.24c0-.47-.05-.91-.05-1.32a12.23,12.23,0,0,1,.36-3,6.77,6.77,0,0,1,1.15-2.47,5.93,5.93,0,0,1,2.07-1.72,7,7,0,0,1,3.23-.66,9,9,0,0,1,3.66.79,50.15,50.15,0,0,1,4.46,2.3l19,11a12.79,12.79,0,0,1,2.3,8,12.76,12.76,0,0,1-1.06,5.75,7.72,7.72,0,0,1-3.1,3.18L520.45,54.86q-4.34-1.14-5.88-3.14A6.82,6.82,0,0,1,513,47.44a6.93,6.93,0,0,1,1.54-4.81,15.17,15.17,0,0,1,4.55-3.23l15.55-7.86Z"/><path class="cls-1" d="M577.81,55.48a7.63,7.63,0,0,1-8.22-8.22V1.59c.65-.12,1.68-.28,3.1-.49a29,29,0,0,1,4.06-.3,19,19,0,0,1,3.58.3,6.35,6.35,0,0,1,2.6,1.11,4.74,4.74,0,0,1,1.59,2.21,10.61,10.61,0,0,1,.53,3.71V43h20.24a11.63,11.63,0,0,1,1.14,2.61A10.75,10.75,0,0,1,607,49q0,3.54-1.5,5a5.47,5.47,0,0,1-4,1.46Z"/><path class="cls-1" d="M630.37,54.86a24.22,24.22,0,0,1-3,.53,32,32,0,0,1-4.11.27,18.86,18.86,0,0,1-3.58-.31A6.45,6.45,0,0,1,617,54.24,4.83,4.83,0,0,1,615.44,52a10.81,10.81,0,0,1-.53-3.71V1.68c.65-.12,1.68-.28,3.1-.49a29,29,0,0,1,4.06-.31,18.94,18.94,0,0,1,3.58.31,6.35,6.35,0,0,1,2.6,1.11,4.69,4.69,0,0,1,1.59,2.21,10.61,10.61,0,0,1,.53,3.71Z"/><path class="cls-1" d="M679.49,1.68a10.85,10.85,0,0,1,1.11,2.61,12,12,0,0,1,.48,3.4c0,2.29-.48,3.93-1.46,4.9a5.31,5.31,0,0,1-3.93,1.46H657.14V24h19.35a8.6,8.6,0,0,1,1.19,2.56,11.57,11.57,0,0,1,.49,3.36q0,3.36-1.46,4.81a5.31,5.31,0,0,1-3.93,1.46H657.32V54.86a24.81,24.81,0,0,1-3.05.53,31.75,31.75,0,0,1-4.11.27,18.94,18.94,0,0,1-3.58-.31,6.35,6.35,0,0,1-2.6-1.11A4.69,4.69,0,0,1,642.39,52a10.57,10.57,0,0,1-.53-3.71V9.89a8.07,8.07,0,0,1,2.21-6,8.11,8.11,0,0,1,6-2.21Z"/><path class="cls-1" d="M688.77,9.89a8.07,8.07,0,0,1,2.21-6,8.11,8.11,0,0,1,6-2.21h29.16a10.54,10.54,0,0,1,1.1,2.56,11.57,11.57,0,0,1,.49,3.36q0,3.36-1.46,4.77a5.29,5.29,0,0,1-3.85,1.41H703.78V22h19.88a11.29,11.29,0,0,1,1.59,5.83q0,3.36-1.41,4.77A5.14,5.14,0,0,1,720,34H703.78v9.28h22.71a10.54,10.54,0,0,1,1.1,2.56,11.24,11.24,0,0,1,.49,3.36q0,3.36-1.46,4.81a5.19,5.19,0,0,1-3.84,1.46H697a7.63,7.63,0,0,1-8.21-8.22Z"/></g></g></svg>